<svg width="18" height="17" viewBox="0 0 18 17" fill="none" xmlns="http://www.w3.org/2000/svg">
<path d="M7.35071 3.00833C7.78408 1.51021 8.00077 0.761154 8.33479 0.571816C8.62317 0.408353 8.9762 0.408353 9.26458 0.571816C9.5986 0.761154 9.81529 1.51021 10.2487 3.00833L10.8144 4.96408C10.931 5.36703 10.9893 5.5685 11.1081 5.716C11.2129 5.84614 11.3505 5.94608 11.5066 6.00557C11.6836 6.073 11.8933 6.06617 12.3125 6.05251L14.3474 5.98622C15.9061 5.93544 16.6854 5.91005 16.9687 6.16921C17.2133 6.39296 17.3224 6.72872 17.2561 7.05349C17.1792 7.42967 16.5338 7.86723 15.2429 8.74234L13.5577 9.88476C13.2105 10.1201 13.0369 10.2378 12.9333 10.3964C12.8419 10.5363 12.7894 10.698 12.7811 10.865C12.7717 11.0541 12.8429 11.2514 12.9855 11.6459L13.6773 13.5607C14.2073 15.0274 14.4723 15.7608 14.3133 16.1103C14.1761 16.412 13.8905 16.6195 13.5611 16.6568C13.1796 16.6999 12.564 16.2213 11.3328 15.264L9.72556 14.0143C9.39441 13.7569 9.22883 13.6281 9.04601 13.5786C8.8847 13.535 8.71467 13.535 8.55336 13.5786C8.37054 13.6281 8.20496 13.7569 7.87381 14.0143L6.26654 15.264C5.03536 16.2213 4.41978 16.6999 4.03825 16.6568C3.70887 16.6195 3.42326 16.412 3.28604 16.1103C3.1271 15.7608 3.39208 15.0274 3.92205 13.5607L4.6139 11.6459C4.75644 11.2514 4.82772 11.0541 4.81829 10.865C4.80997 10.698 4.75743 10.5363 4.66605 10.3964C4.56249 10.2378 4.38889 10.1201 4.04168 9.88477L2.35648 8.74233C1.06561 7.86723 0.42017 7.42967 0.343317 7.05349C0.276968 6.72872 0.386061 6.39296 0.630636 6.16921C0.913927 5.91005 1.69328 5.93544 3.252 5.98622L5.28685 6.05251C5.7061 6.06617 5.91573 6.073 6.09272 6.00557C6.24889 5.94608 6.38644 5.84614 6.49128 5.716C6.6101 5.5685 6.66838 5.36703 6.78495 4.96408L7.35071 3.00833Z" fill="url(#paint0_linear_3171_13847)"/>
<defs>
<linearGradient id="paint0_linear_3171_13847" x1="17.2844" y1="9.31228" x2="-0.62773" y2="9.31228" gradientUnits="userSpaceOnUse">
<stop offset="0.458564" stop-color="#CCCCCC"/>
<stop offset="0.458664" stop-color="#FFE810"/>
</linearGradient>
</defs>
</svg>
