<svg width="57" height="63" viewBox="0 0 57 63" fill="none" xmlns="http://www.w3.org/2000/svg">
<path d="M28.5 2.00195C29.313 2.00221 30.1118 2.21074 30.8177 2.60695L52.61 14.841C53.3246 15.2432 53.9185 15.8236 54.3318 16.5234C54.7452 17.2232 54.9634 18.0178 54.9643 18.827V43.178C54.9632 43.9869 54.7449 44.7813 54.3316 45.4809C53.9182 46.1806 53.3244 46.7608 52.61 47.163L30.8177 59.402C30.1117 59.7978 29.3129 60.006 28.5 60.006C27.6871 60.006 26.8883 59.7978 26.1823 59.402L4.39002 47.163C3.67559 46.7608 3.08175 46.1806 2.6684 45.4809C2.25506 44.7813 2.03682 43.9869 2.03572 43.178V18.827C2.03665 18.0178 2.25479 17.2232 2.66815 16.5234C3.0815 15.8236 3.67544 15.2432 4.39002 14.841L26.1823 2.60695C26.8882 2.21074 27.687 2.00221 28.5 2.00195V2.00195ZM28.5 0.00195312C27.3326 0.00225273 26.1855 0.301415 25.1716 0.869953L3.37929 13.102C2.35211 13.6786 1.49846 14.5119 0.90497 15.5174C0.311479 16.5229 -0.000736861 17.6647 1.30589e-06 18.827V43.178C-0.000453058 44.3401 0.311892 45.4816 0.905363 46.4869C1.49883 47.4921 2.35233 48.3253 3.37929 48.902L25.1716 61.134C26.1854 61.7027 27.3326 62.0019 28.5 62.0019C29.6674 62.0019 30.8146 61.7027 31.8284 61.134L53.6207 48.902C54.6475 48.3252 55.5009 47.4919 56.0944 46.4867C56.6878 45.4815 57.0002 44.34 57 43.178V18.827C57.0005 17.6647 56.6882 16.523 56.0948 15.5176C55.5013 14.5121 54.6478 13.6788 53.6207 13.102L31.8284 0.869953C30.8145 0.301415 29.6674 0.00225273 28.5 0.00195313" fill="#00A88E"/>
<path d="M29.01 13.082H27.9922V23.629H29.01V13.082Z" fill="#58595B"/>
<path d="M34.4308 33.798L33.9219 34.6641L43.8509 40.2962L44.3598 39.4302L34.4308 33.798Z" fill="#58595B"/>
<path d="M12.4258 39.5899L12.9347 40.4559L23.0909 34.6629L22.582 33.7969L12.4258 39.5899Z" fill="#58595B"/>
<path d="M28.4989 13.8762L43.7667 22.4472V39.5542L28.4989 48.1262L13.231 39.5542V22.4472L28.4989 13.8762ZM28.4989 11.5762L11.1953 21.2872V40.7152L28.4989 50.4292L45.8025 40.7152V21.2872L28.4989 11.5762Z" fill="#58595B"/>
<path d="M30.885 28.5L27.6462 31.682L26.5673 30.621L25.8477 31.329L26.9266 32.389L27.6462 33.096L28.3658 32.389L31.6047 29.207L30.885 28.5Z" fill="#58595B"/>
<path d="M28.5 23.8693L33.5893 26.7163V33.3163C33.5893 35.9833 29.9769 37.7893 28.4858 38.4213C26.6791 37.6703 23.4107 35.8023 23.4107 33.3173V26.7173L28.5 23.8703V23.8693ZM28.5 21.5703L21.375 25.5573V33.3203C21.375 38.2283 28.5 40.5703 28.5 40.5703C28.5 40.5703 35.625 38.2283 35.625 33.3203V25.5543L28.5 21.5703Z" fill="#58595B"/>
</svg>
