<svg width="20" height="21" viewBox="0 0 20 21" fill="none" xmlns="http://www.w3.org/2000/svg">
<path d="M5 2.72782L5 18.6472C5 19.2278 5.44811 19.6875 6.01415 19.6875L13.9859 19.6875C14.5519 19.6875 15 19.2278 15 18.6472L15 2.72782C15 2.17137 14.5519 1.6875 13.9859 1.6875L6.01415 1.6875C5.4717 1.6875 5 2.14718 5 2.72782ZM10.8491 17.7036C10.8491 18.1875 10.4717 18.5504 10.0236 18.5504C9.55189 18.5504 9.17453 18.1633 9.17453 17.7036C9.17453 17.2198 9.55189 16.8569 10.0236 16.8569C10.4717 16.8569 10.8491 17.244 10.8491 17.7036ZM13.6792 4.44556L13.6792 15.744L6.29717 15.744L6.29717 4.44557L13.6792 4.44556ZM11.1321 2.72782C11.3208 2.72782 11.4623 2.87298 11.4623 3.06653C11.4623 3.26008 11.3208 3.40524 11.1321 3.40524L8.84434 3.40524C8.65566 3.40524 8.51415 3.26008 8.51415 3.06653C8.51415 2.87298 8.65566 2.72782 8.84434 2.72782L11.1321 2.72782Z" fill="#00A88E"/>
</svg>
