<svg width="22" height="21" viewBox="0 0 22 21" fill="none" xmlns="http://www.w3.org/2000/svg">
<g clip-path="url(#clip0_2934_11050)">
<path d="M2.05469 6.88125V14.4906C2.05469 15.2312 2.47141 15.9125 3.14406 16.2813L10.1692 20.1031C10.8353 20.4656 11.6491 20.4656 12.3152 20.1031L19.3403 16.2813C20.013 15.9156 20.4297 15.2312 20.4297 14.4906V6.88125C20.4297 6.14062 20.013 5.45938 19.3403 5.09375L12.3152 1.27188C11.6491 0.909375 10.8353 0.909375 10.1692 1.27188L3.14406 5.09375C2.47141 5.45938 2.05469 6.14375 2.05469 6.88125Z" fill="#00A88E"/>
</g>
<path d="M14.0312 8.03125C14.0312 6.5625 12.7844 5.375 11.2422 5.375C9.7 5.375 8.45312 6.5625 8.45312 8.03125V8.5625H8.51875C8.78125 9.78125 9.89688 10.6875 11.2422 10.6875C12.5875 10.6875 13.7031 9.78125 13.9656 8.5625H14.0312V8.03125ZM11.2422 6.3125C11.6031 6.3125 11.8984 6.59375 11.8984 6.9375C11.8984 7.28125 11.6031 7.5625 11.2422 7.5625C10.8812 7.5625 10.5859 7.28125 10.5859 6.9375C10.5859 6.59375 10.8812 6.3125 11.2422 6.3125Z" fill="#BB8A19"/>
<path d="M10.2578 11.625V9.75H12.2266V15.4687H10.2578V14.4375L10.9141 13.8125L10.2578 13.1875V12.875L10.9141 12.25L10.2578 11.625Z" fill="#58595B"/>
<path d="M10.2578 9.75V11.9375L10.75 12.4062V12.7188L10.2578 13.1875V13.5L10.75 13.9688V14.2812L10.2578 14.75V15.4687L11.2422 16L12.2266 15.4687V9.75H10.2578Z" fill="white"/>
<path d="M11.4062 15.0625C11.5047 15.0625 11.5703 15 11.5703 14.9062V10.2188C11.5703 10.125 11.5047 10.0625 11.4062 10.0625C11.3078 10.0625 11.2422 10.125 11.2422 10.2188V14.9062C11.2422 15 11.3078 15.0625 11.4062 15.0625Z" fill="#BCBEC0"/>
<path d="M11.2422 5.6875C9.7 5.6875 8.45312 6.875 8.45312 8.34375C8.45312 9.8125 9.7 11 11.2422 11C12.7844 11 14.0312 9.8125 14.0312 8.34375C14.0312 6.875 12.7844 5.6875 11.2422 5.6875ZM11.2422 7.875C10.8812 7.875 10.5859 7.59375 10.5859 7.25C10.5859 6.90625 10.8812 6.625 11.2422 6.625C11.6031 6.625 11.8984 6.90625 11.8984 7.25C11.8984 7.59375 11.6031 7.875 11.2422 7.875Z" fill="#FDB924"/>
<defs>
<clipPath id="clip0_2934_11050">
<rect width="21" height="20" fill="white" transform="translate(0.742188 0.6875)"/>
</clipPath>
</defs>
</svg>
