<svg width="20" height="20" viewBox="0 0 20 20" fill="none" xmlns="http://www.w3.org/2000/svg">
<path fill-rule="evenodd" clip-rule="evenodd" d="M14.7501 4.12498V5.54164H13.3334V4.12498H14.7501ZM11.2084 4.12498V5.54164H12.6251V4.12498H11.2084ZM11.2084 8.37494V9.7916H12.6251V8.37494H11.2084ZM13.3334 8.37494V9.7916H14.7501V8.37494H13.3334ZM5.54181 3.41665H15.4584V6.24996H6.95846V7.66662H15.4584V10.4999H5.54181V9.7916H4.12515V11.9166H16.875V2H4.12515V4.12498H5.54181V3.41665ZM19 17.5832H12.4976C12.1926 18.4236 11.3941 18.9832 10.5001 18.9832C9.60606 18.9832 8.80764 18.4236 8.50262 17.5832H2.00017V16.1665H8.50262C8.7168 15.5649 9.19018 15.0916 9.79177 14.8774V12.6249H11.2084V14.8774C11.81 15.0916 12.2834 15.5649 12.4976 16.1665H19V17.5832ZM11.2084 16.8749C11.2084 16.4837 10.8913 16.1665 10.5001 16.1665C10.1089 16.1665 9.79177 16.4837 9.79177 16.8749C9.79177 17.2661 10.1089 17.5832 10.5001 17.5832C10.8913 17.5832 11.2084 17.2661 11.2084 16.8749ZM2.1489 9.02661C2.24009 9.08286 2.3552 9.08286 2.44639 9.02661L5.41428 7.21329C5.49438 7.15931 5.5424 7.06905 5.5424 6.97246C5.5424 6.87587 5.49438 6.78561 5.41428 6.73163L2.44639 4.91831C2.35855 4.85649 2.2433 4.84966 2.14877 4.90068C2.05424 4.95169 1.99669 5.05178 2.00015 5.15914V8.78578C2.0032 8.88685 2.05989 8.97863 2.1489 9.02661Z" fill="#00A88E"/>
</svg>
