<svg width="21" height="20" viewBox="0 0 21 20" fill="none" xmlns="http://www.w3.org/2000/svg">
<path d="M2.50097 12.9213V12.9082C2.50097 11.9629 3.21895 11.2501 4.17025 11.2501H5.70191H7.03298L8.36404 11.25H9.89742C10.8484 11.25 11.7206 11.9628 11.7206 12.908L12.2188 16.25H2.03298L2.50097 12.9213Z" fill="#00A88E"/>
<path fill-rule="evenodd" clip-rule="evenodd" d="M14.4268 9.14757C12.9254 9.14757 11.7072 7.93895 11.7072 6.44846C11.7072 4.95875 12.9254 3.75 14.4268 3.75C15.9291 3.75 17.1474 4.95888 17.1474 6.44846C17.1474 7.93895 15.9292 9.14757 14.4268 9.14757ZM9.98952 12.0316V12.0174C9.98952 11.8055 10.0199 11.6043 10.0763 11.4186H10.1704C11.0815 11.4186 11.7689 12.1258 11.7689 13.0635L11.771 13.0887L12.1145 15.625H9.53125L9.98952 12.0316ZM10.5657 10.632L10.6197 10.625C11.8652 10.625 12.7489 11.9147 12.7504 13.0411L13.1082 15.625H19.3235L18.8681 12.0447L18.866 12.0173C18.866 10.9969 18.1635 10.2274 17.2323 10.2274H15.7308L13.124 10.2276H11.6241C11.2133 10.2276 10.8469 10.3772 10.5657 10.632Z" fill="#00A88E"/>
<path d="M7.03082 10C5.65085 10 4.53125 8.8804 4.53125 7.4997C4.53125 6.11972 5.65085 5 7.03082 5C8.41153 5 9.53125 6.11984 9.53125 7.4997C9.53125 8.8804 8.41165 10 7.03082 10Z" fill="#00A88E"/>
</svg>
